<svg width="27" height="26" viewBox="0 0 27 26" fill="none" xmlns="http://www.w3.org/2000/svg">
<path d="M2.13636 17.2471H24.8636M2.13636 8.75293H24.8636M13.5 24.6794C20.4036 24.6794 26 19.4504 26 13C26 6.54962 20.4036 1.32055 13.5 1.32055C6.59644 1.32055 1 6.54962 1 13C1 19.4504 6.59644 24.6794 13.5 24.6794ZM13.5 24.6794C16.9091 24.6794 18.0455 19.3706 18.0455 13C18.0455 6.62939 16.9091 1.32055 13.5 1.32055C10.0909 1.32055 8.95455 6.62939 8.95455 13C8.95455 19.3706 10.0909 24.6794 13.5 24.6794Z" stroke="black"/>
</svg>
