<svg width="30" height="31" viewBox="0 0 30 31" fill="none" xmlns="http://www.w3.org/2000/svg">
<path d="M10.1 25.0249C11.9484 25.0867 13.7904 24.7774 15.5172 24.1153C17.244 23.4531 18.8205 22.4515 20.1536 21.1697C21.4867 19.8878 22.5494 18.3518 23.2787 16.6523C24.0081 14.9527 24.3893 13.1243 24.4 11.2749C25.2471 10.2267 25.876 9.01968 26.25 7.7249C26.2779 7.6226 26.2757 7.51441 26.2435 7.41336C26.2114 7.31232 26.1507 7.22272 26.0688 7.15535C25.9869 7.08799 25.8873 7.04574 25.7819 7.03368C25.6766 7.02162 25.57 7.04028 25.475 7.0874C25.0318 7.30071 24.5329 7.36962 24.0486 7.2844C23.5642 7.19919 23.1187 6.96415 22.775 6.6124C22.3362 6.13187 21.8054 5.74431 21.214 5.47268C20.6227 5.20105 19.9829 5.05088 19.3324 5.03106C18.682 5.01125 18.0342 5.12219 17.4274 5.35732C16.8206 5.59244 16.2672 5.94697 15.8 6.3999C15.1602 7.01947 14.6916 7.79401 14.4398 8.64824C14.1879 9.50247 14.1612 10.4073 14.3625 11.2749C10.175 11.5249 7.29999 9.5374 4.99999 6.8124C4.93089 6.73415 4.84051 6.67771 4.73987 6.64998C4.63923 6.62225 4.53269 6.62443 4.43327 6.65624C4.33385 6.68806 4.24584 6.74814 4.18 6.82914C4.11415 6.91015 4.07332 7.00857 4.06249 7.1124C3.62433 9.54292 3.9404 12.0493 4.96826 14.295C5.99612 16.5406 7.68655 18.418 9.81249 19.6749C8.38704 21.3097 6.38525 22.3307 4.22499 22.5249C4.10926 22.5441 4.00242 22.599 3.91943 22.6819C3.83644 22.7648 3.78146 22.8716 3.76217 22.9873C3.74288 23.1031 3.76026 23.2219 3.81187 23.3273C3.86348 23.4326 3.94674 23.5192 4.04999 23.5749C5.92939 24.5141 7.99903 25.0101 10.1 25.0249Z" fill="white"/>
</svg>
